<?xml version="1.0" encoding="utf-8"?>
<!-- Uploaded to: SVG Repo, www.svgrepo.com, Generator: SVG Repo Mixer Tools -->
<svg fill="#ffffff" width="800px" height="800px" viewBox="0 0 32 32" version="1.1" xmlns="http://www.w3.org/2000/svg">
<title>subtitles</title>
<path d="M28 4.765h-24c-1.794 0.002-3.248 1.456-3.25 3.25v15.97c0.002 1.794 1.456 3.248 3.25 3.25h24c1.794-0.001 3.249-1.456 3.25-3.25v-15.97c-0.002-1.794-1.456-3.248-3.25-3.25h-0zM28.75 23.984c-0 0.414-0.336 0.75-0.75 0.75h-24c-0.414-0-0.75-0.336-0.75-0.75v-15.97c0.006-0.412 0.338-0.744 0.749-0.75h24.001c0.412 0.006 0.744 0.338 0.75 0.749v0.001zM15.413 17.266l-0.397-0.176c-0.119-0.054-0.258-0.085-0.404-0.085-0.409 0-0.76 0.245-0.916 0.596l-0.003 0.006c-0.295 0.685-0.769 1.247-1.363 1.64l-0.014 0.009c-0.569 0.389-1.272 0.621-2.030 0.621-0.018 0-0.035-0-0.053-0l0.003 0c-0.022 0-0.047 0.001-0.073 0.001-1.032 0-1.964-0.429-2.627-1.119l-0.001-0.001c-0.69-0.677-1.118-1.62-1.118-2.662 0-0.034 0-0.067 0.001-0.101l-0 0.005c-0.001-0.029-0.001-0.063-0.001-0.097 0-1.041 0.428-1.983 1.117-2.659l0.001-0.001c0.663-0.691 1.594-1.12 2.625-1.12 0.027 0 0.054 0 0.080 0.001l-0.004-0c0.016-0 0.034-0 0.053-0 0.756 0 1.458 0.231 2.039 0.627l-0.013-0.008c0.609 0.403 1.083 0.964 1.369 1.626l0.009 0.024c0.157 0.358 0.509 0.604 0.918 0.604 0.147 0 0.287-0.032 0.413-0.089l-0.006 0.003 0.397-0.177c0.353-0.16 0.593-0.508 0.593-0.914 0-0.147-0.032-0.286-0.088-0.411l0.003 0.006c-0.494-1.112-1.269-2.023-2.237-2.667l-0.023-0.014c-0.947-0.641-2.115-1.023-3.372-1.023-0.019 0-0.039 0-0.058 0l0.003-0c-0.031-0.001-0.067-0.001-0.103-0.001-1.696 0-3.228 0.7-4.324 1.827l-0.001 0.001c-1.122 1.108-1.817 2.647-1.817 4.348 0 0.040 0 0.079 0.001 0.119l-0-0.006c-0.001 0.033-0.001 0.072-0.001 0.111 0 1.702 0.695 3.242 1.817 4.351l0.001 0.001c1.098 1.128 2.631 1.827 4.327 1.827 0.036 0 0.072-0 0.107-0.001l-0.005 0c0.017 0 0.037 0 0.058 0 1.256 0 2.422-0.382 3.389-1.037l-0.021 0.014c0.991-0.659 1.767-1.57 2.245-2.642l0.016-0.039c0.054-0.119 0.086-0.258 0.086-0.405 0-0.406-0.242-0.755-0.589-0.911l-0.006-0.003zM22.236 12.125c0.016-0 0.034-0 0.052-0 0.756 0 1.459 0.231 2.040 0.627l-0.013-0.008c0.608 0.403 1.082 0.964 1.368 1.626l0.009 0.024c0.157 0.358 0.509 0.603 0.917 0.603 0.147 0 0.287-0.032 0.413-0.089l-0.006 0.003 0.396-0.177c0.353-0.159 0.593-0.508 0.593-0.913 0-0.146-0.032-0.285-0.088-0.411l0.003 0.006c-0.493-1.112-1.268-2.023-2.235-2.668l-0.023-0.014c-0.967-0.647-2.157-1.033-3.437-1.033-3.444 0-6.236 2.792-6.236 6.236 0 0.022 0 0.044 0 0.065l-0-0.003c-0.001 0.033-0.001 0.072-0.001 0.111 0 1.702 0.695 3.242 1.817 4.351l0.001 0.001c1.134 1.129 2.697 1.826 4.423 1.826 1.277 0 2.466-0.382 3.456-1.038l-0.023 0.015c0.99-0.659 1.765-1.57 2.242-2.642l0.016-0.039c0.054-0.119 0.086-0.258 0.086-0.405 0-0.405-0.241-0.754-0.587-0.911l-0.006-0.003-0.396-0.176c-0.119-0.054-0.259-0.086-0.406-0.086-0.409 0-0.761 0.245-0.916 0.597l-0.003 0.006c-0.295 0.685-0.768 1.246-1.361 1.64l-0.014 0.009c-0.588 0.389-1.31 0.621-2.085 0.621-1.054 0-2.008-0.428-2.698-1.119l-0-0c-0.69-0.677-1.118-1.619-1.118-2.662 0-0.034 0-0.068 0.001-0.101l-0 0.005c-0.001-0.029-0.001-0.063-0.001-0.097 0-1.042 0.428-1.983 1.118-2.658l0.001-0.001c0.663-0.691 1.594-1.12 2.625-1.12 0.027 0 0.053 0 0.080 0.001l-0.004-0z"></path>
</svg>